<?xml version="1.0" encoding="utf-8"?>
<!-- Generator: Adobe Illustrator 16.0.0, SVG Export Plug-In . SVG Version: 6.00 Build 0)  -->
<!DOCTYPE svg PUBLIC "-//W3C//DTD SVG 1.1//EN" "http://www.w3.org/Graphics/SVG/1.1/DTD/svg11.dtd">
<svg version="1.1" id="Layer_1" xmlns="http://www.w3.org/2000/svg" xmlns:xlink="http://www.w3.org/1999/xlink" x="0px" y="0px"
	 width="348.22px" height="78.389px" viewBox="0 0 348.22 78.389" enable-background="new 0 0 348.22 78.389" xml:space="preserve">
<path fill="#FFFFFF" d="M64.033,52.841c-3.052,7.551-6.606,7.129-6.606,7.129c-7.305,0-7.614-10.651-7.621-12.199v-0.004
	c0.007-1.552,0.316-12.204,7.621-12.204c0,0,3.554-0.424,6.606,7.13c0,0,1.149,0.855,2.389,0.409V29.139
	c0-5.263-4.489-9.529-10.026-9.529H42.004c-0.013-0.004-0.022-0.009-0.036-0.012c-5.543-1.596-2.905-4.77-2.905-4.77
	c8.714-3.181,8.224-6.885,8.224-6.885c0-7.614-12.287-7.936-14.076-7.943h-0.006c-1.785,0.008-14.073,0.329-14.073,7.943
	c0,0-0.486,3.704,8.224,6.885c0,0,2.637,3.174-2.901,4.77c-0.014,0.003-0.023,0.008-0.037,0.012H10.026
	C4.489,19.609,0,23.876,0,29.139v13.664c1.431,1.019,2.949-0.11,2.949-0.11c3.052-7.551,6.606-7.128,6.606-7.128
	c7.305,0,7.614,10.65,7.622,12.198v0.006c-0.007,1.55-0.317,12.202-7.622,12.202c0,0-3.554,0.425-6.606-7.13
	c0,0-1.518-1.129-2.949-0.109v16.127c0,5.264,4.489,9.53,10.026,9.53h18.439c0.705-1.202-0.274-2.394-0.274-2.394
	c-7.469-2.73-7.052-5.218-7.052-5.218c0-6.528,10.537-6.805,12.068-6.811h0.004c1.535,0.006,12.073,0.282,12.073,6.811
	c0,0,0.419,2.487-7.054,5.218c0,0-0.979,1.191-0.272,2.394h18.438c5.537,0,10.026-4.267,10.026-9.53V52.431
	C65.182,51.985,64.033,52.841,64.033,52.841z"/>
<path fill="#FFFFFF" d="M79.871,41.715c0-4.074-0.129-7.481-0.258-10.422h8.313l0.386,4.409h0.193
	c1.354-2.138,4.188-5.21,9.537-5.21c4.124,0,7.281,2.204,8.635,5.611h0.129c1.223-1.737,2.577-3.074,4.124-4.009
	c1.74-1.002,3.672-1.603,5.993-1.603c6.056,0,10.631,4.409,10.631,14.23v19.244h-9.535V46.193c0-4.744-1.484-7.483-4.642-7.483
	c-2.319,0-3.865,1.603-4.573,3.54c-0.192,0.736-0.323,1.738-0.323,2.606v19.11h-9.537V45.59c0-4.076-1.417-6.88-4.573-6.88
	c-2.513,0-3.995,2.003-4.575,3.608c-0.322,0.802-0.387,1.734-0.387,2.605v19.043h-9.536V41.715z"/>
<path fill="#FFFFFF" d="M164.178,46.528c0,11.959-8.183,17.438-16.623,17.438c-9.216,0-16.303-6.282-16.303-16.839
	c0-10.624,6.7-17.371,16.881-17.371C157.733,29.757,164.178,36.637,164.178,46.528z M141.369,46.86c0,5.613,2.254,9.822,6.442,9.822
	c3.867,0,6.25-3.943,6.25-9.889c0-4.811-1.806-9.755-6.25-9.755C143.172,37.039,141.369,42.05,141.369,46.86z"/>
<path fill="#FFFFFF" d="M168.011,41.715c0-4.074-0.129-7.481-0.259-10.422h8.505l0.453,4.543h0.191
	c1.289-2.138,4.445-5.278,9.732-5.278c6.443,0,11.273,4.478,11.273,14.099v19.311h-9.795V45.857c0-4.209-1.416-7.081-4.961-7.081
	c-2.705,0-4.316,1.937-5.025,3.809c-0.258,0.667-0.322,1.604-0.322,2.539v18.843h-9.793V41.715z"/>
<path fill="#FFFFFF" d="M211.081,50.203c0.262,4.209,4.322,6.212,8.895,6.212c3.35,0,6.057-0.466,8.697-1.403l1.289,6.883
	c-3.223,1.404-7.15,2.072-11.404,2.072c-10.697,0-16.818-6.414-16.818-16.639c0-8.284,4.963-17.438,15.916-17.438
	c10.182,0,14.045,8.219,14.045,16.304c0,1.736-0.191,3.273-0.32,4.01H211.081z M222.616,43.254c0-2.473-1.029-6.615-5.541-6.615
	c-4.123,0-5.799,3.941-6.057,6.615H222.616z"/>
<path fill="#FFFFFF" d="M246.296,19.574v9.286h7.023v7.88h-7.023v12.45c0,4.152,0.967,6.054,3.867,6.054
	c1.352,0,1.994-0.073,2.898-0.283l0.064,8.091c-1.225,0.493-3.607,0.915-6.314,0.915c-3.158,0-5.799-1.194-7.41-2.957
	c-1.805-2.037-2.707-5.345-2.707-10.2V36.74h-4.188v-7.88h4.188v-6.402L246.296,19.574z"/>
<path fill="#FFFFFF" d="M284.577,55.347c0,3.074,0.131,6.081,0.516,7.885h-8.826l-0.582-3.273h-0.193
	c-2.061,2.605-5.281,4.009-9.02,4.009c-6.379,0-10.18-4.811-10.18-10.024c0-8.484,7.344-12.494,18.49-12.494v-0.4
	c0-1.804-0.9-4.276-5.732-4.276c-3.223,0-6.637,1.136-8.699,2.473l-1.805-6.547c2.191-1.271,6.508-2.94,12.244-2.94
	c10.502,0,13.787,6.413,13.787,14.164V55.347z M275.106,47.796c-5.154,0-9.15,1.27-9.15,5.145c0,2.605,1.676,3.877,3.867,3.877
	c2.383,0,4.443-1.672,5.09-3.742c0.129-0.535,0.193-1.137,0.193-1.736V47.796z"/>
<path fill="#FFFFFF" d="M300.589,19.574v9.286h7.021v7.88h-7.021v12.45c0,4.152,0.969,6.054,3.867,6.054
	c1.354,0,1.996-0.073,2.896-0.283l0.066,8.091c-1.225,0.493-3.607,0.915-6.314,0.915c-3.156,0-5.797-1.194-7.41-2.957
	c-1.805-2.037-2.705-5.345-2.705-10.2V36.74h-4.188v-7.88h4.188v-6.402L300.589,19.574z"/>
<path fill="#FFFFFF" d="M319.925,50.203c0.256,4.209,4.316,6.212,8.893,6.212c3.346,0,6.055-0.466,8.697-1.403l1.287,6.883
	c-3.223,1.404-7.15,2.072-11.404,2.072c-10.693,0-16.818-6.414-16.818-16.639c0-8.284,4.965-17.438,15.914-17.438
	c10.184,0,14.047,8.219,14.047,16.304c0,1.736-0.189,3.273-0.322,4.01H319.925z M331.458,43.254c0-2.473-1.031-6.615-5.541-6.615
	c-4.125,0-5.801,3.941-6.059,6.615H331.458z"/>
<path fill="#FFFFFF" d="M348.22,27.915c0,2.688-2.166,4.823-4.912,4.823c-2.748,0-4.941-2.135-4.941-4.823
	c0-2.689,2.193-4.796,4.971-4.796C346.054,23.119,348.22,25.226,348.22,27.915z M339.595,27.915c0,2.133,1.609,3.829,3.742,3.829
	c2.076,0.031,3.658-1.696,3.658-3.802c0-2.134-1.582-3.859-3.721-3.859C341.204,24.083,339.595,25.809,339.595,27.915z
	 M342.548,30.403h-1.109v-4.799c0.438-0.06,1.051-0.147,1.836-0.147c0.914,0,1.322,0.147,1.646,0.382
	c0.287,0.206,0.492,0.555,0.492,1.023c0,0.584-0.438,0.966-0.994,1.138v0.06c0.469,0.147,0.701,0.529,0.846,1.17
	c0.148,0.729,0.27,0.994,0.354,1.174h-1.17c-0.148-0.18-0.234-0.589-0.381-1.174c-0.084-0.497-0.377-0.73-0.99-0.73h-0.529V30.403z
	 M342.577,27.709h0.525c0.613,0,1.111-0.204,1.111-0.7c0-0.44-0.318-0.734-1.023-0.734c-0.293,0-0.496,0.031-0.613,0.062V27.709z"/>
</svg>
